<?xml version="1.0" encoding="utf-8"?>
<!-- Generator: Adobe Illustrator 14.0.0, SVG Export Plug-In . SVG Version: 6.00 Build 43363)  -->
<!DOCTYPE svg PUBLIC "-//W3C//DTD SVG 1.1//EN" "http://www.w3.org/Graphics/SVG/1.1/DTD/svg11.dtd">
<svg version="1.1" xmlns="http://www.w3.org/2000/svg" xmlns:xlink="http://www.w3.org/1999/xlink" x="0px" y="0px" width="504px"
	 height="504px" viewBox="0 0 504 504" enable-background="new 0 0 504 504" xml:space="preserve">
<g id="Layer_2">
	<path d="M238.5,163.5c0,0-5.5-56,26.5-79c0,0,14.5-16,35.5-2.5c0,0,16,9,23.5,18.5c0,0,11,12,28,15c0,0,29,4.5,33,28.5
		c0,0,5.5,20.5-12.5,46c0,0-14,18.5-33.5,30.5c0,0,71.5-7.5,77.5,27c0,0,6,25-13,45.5c0,0-25.5,25-31,40.5c0,0-12.5,25.5-43.5,24.5
		c0,0-33.5,2-58.5-42.5c0,0,1.5,36,36,89.5c0,0,14,18-3.5,20c0,0-25.5,4-42.5-10.5c0,0-22-24.5-19.5-76.5c0,0-25,46.5-48.5,34
		c0,0-8-1.5-20-16c0,0-11-16-28-22c0,0-10-5.5-19.5-10c0,0-35-19.5-4-51c0,0,23-23.5,41.5-27.5c0,0-51.5-2-66.5-21
		c0,0-17-13.5-2.5-40.5c0,0,4-11.5,20-22.5c0,0,20.5-20,24-32.5c0,0,14-37,40-39C177.5,90,215,87,238.5,163.5z"/>
</g>
<g id="Layer_3">
	<path fill="#0E9E49" d="M250,217.5c0,0-17-83.5,6-114.5c0,0,17.5-31,40.5-17.5c0,0,14,9.5,21.5,16c0,0,13,15.5,29.5,17.5
		c0,0,34,5.5,33.5,30.5c0,0,3,23-16.5,42.5c0,0-25.5,25.5-65,41.5c0,0-14,9.5-1.5,6.5c0,0,29-18,67.5-15c0,0,43-1.5,45,27.5
		c0,0,4.5,15-13.5,38.5c0,0-19.5,19-23.5,29c0,0-15,42.5-52.5,30.5c0,0-34.5-7-52.5-55c0,0-5-14-5,1c0,0-6.5,45,35.5,107
		c0,0,16.5,18.5-2,16.5c0,0-26,3.5-37.5-16c0,0-21-37.5-9.5-91c0,0,4-16-6-1.5c0,0,0.5,15.5-17,37.5c0,0-21,31.5-43.5,12
		c0,0-5-4-8.5-9c0,0-6.5-15.5-22-19.5c0,0-47.5-19.5-38.5-39c0,0,3-12,40-39c0,0,11.5-12,43-9.5c0,0,12.5,0.5,17.5-1.5c0,0,7-5-3-5
		c0,0-70,8-103-12.5c0,0-27-9.5-9-42.5c0,0,3-6.5,16.5-18c0,0,18.5-13.5,31-42.5c0,0,17-45,51-18c0,0,36.5,39,44,100
		c0,0,1.5,17.5,3.5,18C246,223,251.5,227.5,250,217.5z"/>
</g>
</svg>
