<?xml version="1.0" standalone="no"?>
<!DOCTYPE svg PUBLIC "-//W3C//DTD SVG 20010904//EN"
 "http://www.w3.org/TR/2001/REC-SVG-20010904/DTD/svg10.dtd">
<svg version="1.0" xmlns="http://www.w3.org/2000/svg"
 width="700.000000pt" height="700.000000pt" viewBox="0 0 700.000000 700.000000"
 preserveAspectRatio="xMidYMid meet">
<metadata>
Created by potrace 1.11, written by Peter Selinger 2001-2013
</metadata>
<g transform="translate(0.000000,700.000000) scale(0.100000,-0.100000)"
fill="#000000" stroke="none">
<path d="M3859 5925 c-25 -7 -69 -25 -98 -40 -63 -35 -208 -171 -254 -240 -93
-138 -156 -322 -184 -540 -10 -83 -11 -95 -13 -230 -2 -114 -3 -126 -14 -93
-6 20 -14 40 -18 44 -5 4 -8 14 -8 22 0 28 -149 372 -170 392 -3 3 -14 21 -24
40 -60 109 -180 254 -276 331 -59 48 -162 104 -227 122 -236 69 -492 -134
-665 -529 -40 -91 -83 -163 -129 -219 -128 -154 -185 -214 -241 -256 -18 -13
-67 -58 -109 -100 -60 -62 -85 -97 -127 -180 -55 -111 -83 -209 -83 -292 0
-239 205 -417 576 -502 104 -24 275 -50 400 -61 17 -1 35 -3 40 -4 6 0 -14 -9
-43 -20 -130 -46 -300 -164 -471 -325 -262 -247 -287 -483 -70 -678 44 -40
111 -79 275 -162 246 -125 309 -168 414 -286 41 -46 109 -118 150 -159 69 -69
93 -84 216 -142 32 -15 134 -12 182 6 120 44 255 172 385 364 31 47 57 89 57
94 0 4 4 8 8 8 5 0 9 -44 8 -97 0 -100 9 -235 18 -288 3 -16 8 -43 10 -60 22
-162 110 -400 199 -537 83 -130 263 -208 497 -214 282 -8 322 63 173 305 -99
159 -118 192 -187 324 -102 197 -201 443 -242 602 -39 149 -68 326 -46 274 24
-55 142 -209 222 -290 238 -240 508 -328 785 -257 150 38 303 158 391 308 24
41 44 78 44 82 0 8 70 119 81 128 3 3 20 25 38 50 35 48 121 148 212 245 108
115 120 130 155 191 109 194 132 452 53 607 -57 112 -209 201 -419 245 -127
28 -242 37 -442 35 -93 -1 -168 0 -168 2 0 2 17 14 38 26 86 52 244 194 356
319 87 97 167 238 205 364 28 90 32 115 35 211 10 276 -142 451 -459 530 -181
44 -302 113 -425 241 -98 101 -290 234 -396 274 -67 25 -154 31 -215 15z"/>
</g>
</svg>
